<svg xmlns="http://www.w3.org/2000/svg" version="1.1" viewBox="-5.0 -10.0 110.0 135.0">
 <path d="m30.262 26.09 38.523 13.965v0.003906c1.2344 0.44531 2.1055 1.5547 2.2539 2.8555 0.14844 1.3047-0.45312 2.5781-1.5547 3.2891l-10.086 6.5234 13.574 13.578c1.5078 1.5078 1.5078 3.957 0 5.4648l-1.1992 1.1992c-0.72656 0.72656-1.707 1.1328-2.7344 1.1328-1.0234 0-2.0078-0.40625-2.7344-1.1328l-13.578-13.578-6.5234 10.086 0.003906 0.003907c-0.71094 1.1016-1.9883 1.7031-3.2891 1.5547-1.3047-0.14844-2.4102-1.0195-2.8555-2.2539l-13.969-38.523c-0.42969-1.1875-0.13672-2.5156 0.75781-3.4102 0.89453-0.89453 2.2227-1.1875 3.4102-0.75781z"/>
</svg>