<svg xmlns="http://www.w3.org/2000/svg" data-name="Layer 1" viewBox="0 0 100 125" x="0px" y="0px"><title>Artboard 50</title><path d="M19.41,76.91a1.5,1.5,0,0,0,1.06.44H81.56a1.5,1.5,0,0,0,0-3H45.31L56.18,63.47h0L76.69,43a6.5,6.5,0,0,0,0-9.19L61.78,18.86a6.5,6.5,0,0,0-9.19,0l-20.4,20.4a.38.38,0,0,0-.21.21l-20.4,20.4a6.51,6.51,0,0,0,0,9.19ZM54.71,21a3.58,3.58,0,0,1,4.95,0L74.57,35.9a3.5,3.5,0,0,1,0,5L55.12,60.29,35.26,40.43Zm-41,41L33.14,42.55,53,62.41,41.07,74.35h-20l-7.4-7.4A3.5,3.5,0,0,1,13.69,62Z"/><path d="M59.43,29a1.5,1.5,0,1,0,2.12-2.12,5.53,5.53,0,0,0-7.82,0l-8.55,8.55a1.5,1.5,0,1,0,2.12,2.12L55.85,29A2.59,2.59,0,0,1,59.43,29Z"/><path d="M23,71a1.5,1.5,0,0,0,1.06.44H34.94a1.5,1.5,0,0,0,0-3H24.71l-3.57-3.57A1.5,1.5,0,0,0,19,67Z"/></svg>